HIERARCHY
ROOT Hips
{
  OFFSET 90.7885 88.945 -76.2838
  CHANNELS 6 Xposition Yposition Zposition Zrotation Xrotation Yrotation
  JOINT LeftUpLeg
  {
    OFFSET 8.64259 1.95398 -2.38835
    CHANNELS 3 Zrotation Xrotation Yrotation
    JOINT LeftLeg
    {
      OFFSET 43.7702 0 0
      CHANNELS 3 Zrotation Xrotation Yrotation
      JOINT LeftFoot
      {
        OFFSET 40.6238 0 0
        CHANNELS 3 Zrotation Xrotation Yrotation
        JOINT LeftToeBase
        {
          OFFSET 12.7242 0 0
          CHANNELS 3 Zrotation Xrotation Yrotation
          End Site
          {
            OFFSET 0 0 0
          }
        }
      }
    }
  }
  JOINT RightUpLeg
  {
    OFFSET -8.2249 1.95398 -2.59336
    CHANNELS 3 Zrotation Xrotation Yrotation
    JOINT RightLeg
    {
      OFFSET 43.5653 0 0
      CHANNELS 3 Zrotation Xrotation Yrotation
      JOINT RightFoot
      {
        OFFSET 40.6238 0 0
        CHANNELS 3 Zrotation Xrotation Yrotation
        JOINT RightToeBase
        {
          OFFSET 12.7242 0 0
          CHANNELS 3 Zrotation Xrotation Yrotation
          End Site
          {
            OFFSET 0 0 0
          }
        }
      }
    }
  }
  JOINT Spine
  {
    OFFSET 0.165834 0.87714 6.61349
    CHANNELS 3 Zrotation Xrotation Yrotation
    JOINT Spine1
    {
      OFFSET 7.38963 1.71661e-005 0
      CHANNELS 3 Zrotation Xrotation Yrotation
      JOINT Spine2
      {
        OFFSET 11.9445 1.14441e-005 0
        CHANNELS 3 Zrotation Xrotation Yrotation
        JOINT Spine3
        {
          OFFSET 14.7254 4.19617e-005 0
          CHANNELS 3 Zrotation Xrotation Yrotation
          JOINT Spine4
          {
            OFFSET 10.9679 0 0
            CHANNELS 3 Zrotation Xrotation Yrotation
            JOINT RightShoulder
            {
              OFFSET 2.46616 -1.6653 3.69651
              CHANNELS 3 Zrotation Xrotation Yrotation
              JOINT RightArm
              {
                OFFSET 13.0012 0 0
                CHANNELS 3 Zrotation Xrotation Yrotation
                JOINT RightForeArm
                {
                  OFFSET 28.7848 1.52588e-005 0
                  CHANNELS 3 Zrotation Xrotation Yrotation
                  JOINT RightHand
                  {
                    OFFSET 26.5688 1.52588e-005 0
                    CHANNELS 3 Zrotation Xrotation Yrotation
                    End Site
                    {
                      OFFSET 0 0 0
                    }
                  }
                }
              }
            }
            JOINT LeftShoulder
            {
              OFFSET 2.38034 -1.29275 -3.7523
              CHANNELS 3 Zrotation Xrotation Yrotation
              JOINT LeftArm
              {
                OFFSET 16.3182 6.10352e-005 0
                CHANNELS 3 Zrotation Xrotation Yrotation
                JOINT LeftForeArm
                {
                  OFFSET 27.0901 0 0
                  CHANNELS 3 Zrotation Xrotation Yrotation
                  JOINT LeftHand
                  {
                    OFFSET 24.5451 1.52588e-005 0
                    CHANNELS 3 Zrotation Xrotation Yrotation
                    End Site
                    {
                      OFFSET 0 0 0
                    }
                  }
                }
              }
            }
            JOINT Neck
            {
              OFFSET 5.0226 -0.0266342 0
              CHANNELS 3 Zrotation Xrotation Yrotation
              JOINT Head
              {
                OFFSET 6.69363 2.86102e-005 0
                CHANNELS 3 Zrotation Xrotation Yrotation
                End Site
                {
                  OFFSET 0 0 0
                }
              }
            }
          }
        }
      }
    }
  }
}
MOTION
Frames:	16
Frame Time:	0.0416667
54.77 100.481 -346.622 176.476 -84.6174 173.971 174.313 -9.28428 81.4657 -3.0357 0.929981 8.15672 70.0241 4.55296 -0.173823 15.5531 -1.34591 3.6112 159.126 -4.72557 75.4908 -5.22111 -21.7367 4.81709 67.6073 -4.08608 0.806048 25.9623 -0.345364 1.39546 0.170162 7.52162 -90.1071 11.831 0.288082 -0.244142 0.160014 0.277056 -0.256603 -22.3753 0.348143 -0.146284 -2.36267 0.348137 -0.146284 90.6764 -30.5235 -105.227 41.3388 -15.7064 -8.44145 -5.7375 -28.7503 -15.9325 -16.0688 -1.03852 -7.71485 -88.9242 -55.1646 81.3055 -24.0386 9.48013 -14.3391 16.842 49.9539 -18.3897 -26.5945 3.86933 -22.6727 6.62403 -3.63622 -3.67369 -5.84335 -3.07198 6.60684 
54.7576 100.484 -346.676 -177.913 -84.9384 179.871 174.567 -8.61939 81.835 -3.7657 0.345285 7.97708 70.4589 4.60221 -0.419172 17.2054 -3.44159 5.94424 159.56 -4.40162 75.9889 -5.32344 -21.9611 4.66973 67.613 -4.10724 0.484282 26.4808 -1.34472 3.51759 0.232887 7.50424 -90.114 11.8661 0.409494 -0.270956 0.195198 0.397178 -0.288728 -22.3404 0.471994 -0.135354 -2.32777 0.471991 -0.135363 91.2864 -30.695 -103.964 40.9082 -17.0223 -9.1795 -5.75907 -28.2625 -16.697 -16.0981 -1.08159 -7.08201 -88.8933 -55.1022 81.3374 -24.236 10.0351 -14.3202 15.0828 47.305 -16.8181 -28.7812 4.21981 -22.5284 6.69158 -3.4863 -4.01548 -6.39425 -2.90114 6.95803 
54.7659 100.473 -346.969 -172.109 -85.4963 -173.516 175.492 -6.72299 83.1119 -6.45079 0.402154 7.31975 71.6654 4.7202 -0.465645 15.5769 -2.88195 5.42064 160.411 -3.91809 77.1259 -5.35729 -21.0017 4.47054 67.0276 -3.82422 1.4845 27.3246 -0.666321 1.85544 0.229764 7.47419 -90.1978 11.9259 0.36369 -0.433869 0.254891 0.344245 -0.449466 -22.2803 0.477265 -0.30451 -2.26767 0.477272 -0.304511 90.4948 -30.6316 -105.538 39.988 -17.744 -8.8065 -5.44398 -27.0605 -17.8909 -16.4855 -1.12617 -6.11768 -88.7559 -55.9527 81.6817 -23.2851 10.5678 -14.282 13.6341 41.9938 -15.2027 -24.1079 2.67591 -18.6865 7.16692 -3.4196 -3.4557 -6.93459 -2.95618 6.80219 
54.9067 100.466 -347.364 -164.671 -86.0853 -165.147 176.965 -4.33596 84.8159 -9.78485 1.0335 5.97952 73.3829 5.20917 0.0477447 14.691 -1.86522 4.29581 161.738 -3.19591 78.6095 -6.02068 -19.5736 3.88712 66.9068 -3.80224 2.15064 28.2493 -0.967652 2.37875 0.315449 7.44993 -90.3127 11.9754 0.479775 -0.675598 0.304354 0.449592 -0.696065 -22.2307 0.660638 -0.500174 -2.21803 0.660647 -0.500172 89.0522 -30.2979 -108.513 39.5234 -16.7978 -6.69109 -6.26672 -24.5592 -20.5097 -16.3606 -1.09072 -5.51198 -89.0991 -56.2485 81.2521 -23.0412 11.6726 -14.3455 10.4815 33.8563 -12.0641 -21.2269 2.07162 -17.4302 6.57949 -3.02876 -2.76928 -5.70606 -2.62805 6.04042 
55.3701 100.415 -347.652 -165.513 -86.7522 -165.425 178.341 -1.76069 86.1274 -13.5587 1.9546 4.4321 75.2913 5.86579 -0.479922 14.5732 -2.20732 4.70022 163.276 -2.64229 79.9085 -6.84255 -17.9171 2.74439 67.1538 -4.05368 1.9865 28.9094 -0.570198 1.31614 0.311776 7.43643 -90.3744 12.002 0.443257 -0.795098 0.330914 0.407841 -0.813833 -22.2035 0.661723 -0.625127 -2.19089 0.661721 -0.625128 88.7914 -30.0885 -109.109 39.33 -16.2393 -5.60648 -8.09285 -24.1354 -23.7792 -14.6215 -1.30979 -2.87905 -88.5631 -56.4259 82.0323 -22.2005 16.1531 -14.1657 5.52345 19.5211 -9.41161 -24.5157 3.48218 -22.4807 5.20885 -2.05142 -1.92792 -3.76165 -1.72563 4.17628 
56.0308 100.217 -347.648 -164.133 -86.8844 -163.101 -179.29 0.648684 88.0804 -18.4884 4.35882 1.97709 77.4911 6.82043 -0.227864 13.4805 -1.69367 4.21605 165.357 -2.94946 81.6747 -7.61495 -16.0227 1.00369 67.7656 -4.66908 1.73269 28.8462 -0.430707 1.00327 0.412455 7.49893 -90.5538 11.8776 0.5595 -1.16435 0.206217 0.507724 -1.18786 -22.3269 0.883559 -0.942398 -2.31428 0.883556 -0.942402 88.357 -29.9417 -110.023 38.5132 -14.4668 -4.52138 -9.31678 -24.039 -25.3182 -14.0342 -1.27833 -3.11675 -88.5677 -56.8861 82.1038 -21.7491 16.8963 -14.3126 4.69418 10.4629 -8.47946 -14.7511 1.11351 -15.1592 6.6055 -3.13184 -1.41072 -5.99247 -2.97337 4.90804 
56.7784 99.4455 -347.389 -157.435 -87.2584 -155.893 -177.494 3.87629 89.4201 -24.4475 5.85236 -0.0702799 80.7497 7.86236 -0.349643 12.7345 -0.878833 3.38569 169.123 -0.146226 83.2977 -13.3458 -12.3974 -1.23232 69.1613 -6.55257 0.905432 32.1817 -0.261848 -0.171463 0.42988 7.54307 -90.6467 11.7892 0.551037 -1.34775 0.117655 0.491196 -1.3707 -22.4143 0.930588 -1.11988 -2.40163 0.930596 -1.11987 87.8627 -30.7106 -110.654 36.1485 -14.4272 -5.21439 -6.51188 -20.1729 -22.7526 -16.1542 -1.07547 -3.86732 -88.8499 -56.5544 81.654 -21.7091 17.9111 -14.1244 3.37769 2.50194 -7.4982 -4.60546 -0.0145024 -10.0432 6.35278 -2.48682 -1.67171 -4.54043 -2.19401 3.61456 
57.2575 98.6289 -346.479 -123.929 -86.4293 -121.794 -176.105 5.76327 90.6849 -28.6819 5.23124 -1.80597 83.6028 8.39014 -1.16134 13.085 -1.09977 3.59363 175.374 8.76511 85.3951 -31.8518 0.745966 -3.61189 77.0011 -8.85556 10.1509 23.3412 -0.976775 3.01524 0.433977 7.55819 -90.5936 11.7595 0.584298 -1.24494 0.0880492 0.528957 -1.26945 -22.4448 0.931426 -1.01182 -2.43215 0.931434 -1.01181 87.5807 -33.3281 -110.098 34.6858 -12.8174 -4.79289 -7.74968 -16.8416 -24.9727 -15.5293 -1.02917 -2.97634 -88.8938 -53.8201 81.1049 -22.944 19.0451 -12.8524 2.14945 -3.06512 -6.08351 -2.94965 -0.0710475 -8.90803 5.81867 -1.67508 -4.70799 -2.71064 -0.77829 3.76767 
57.7182 98.8238 -344.744 -112.581 -84.4426 -110.559 -176.596 3.11595 89.582 -26.1989 2.33623 -1.56435 83.1804 8.18096 -1.21289 13.4161 -0.707862 3.11817 177.651 17.289 88.4321 -41.6981 -8.03221 -3.95212 72.6121 -7.10744 2.36765 27.0875 -0.507256 1.53705 0.219696 7.68177 -90.5728 11.5098 0.169261 -1.15855 -0.161667 0.118102 -1.16489 -22.6933 0.509604 -1.05415 -2.68068 0.509609 -1.05415 89.096 -32.8891 -107.415 36.3411 -12.0162 -4.89278 -10.4307 -17.6961 -28.528 -12.7681 -1.15522 -1.30667 -88.615 -53.9691 81.5332 -21.1734 19.3936 -13.5566 2.01071 0.723321 -4.8787 -1.33695 -0.116952 -7.29318 6.75112 -0.179502 -4.49774 -3.46541 0.672281 3.1541 
57.9914 98.6972 -342.236 -105.659 -82.8878 -104.403 -177.875 0.352267 87.56 -23.5484 -1.5531 -0.813302 83.6998 8.3292 -1.41306 14.9194 -0.629127 2.85121 177.747 21.6371 91.1207 -35.015 -15.423 -2.8692 69.0433 -5.26608 -0.416996 28.9433 -0.746498 1.71069 -0.0400992 7.70711 -90.4559 11.4577 -0.292699 -0.878339 -0.213499 -0.331078 -0.864615 -22.7463 -0.0152082 -0.925695 -2.73365 -0.0152055 -0.925698 88.7987 -33.0735 -107.907 37.111 -10.1733 -2.41127 -9.87543 -21.0904 -30.0848 -13.4289 -1.53423 1.43959 -89.076 -52.654 80.6268 -21.3663 20.2435 -14.566 1.59093 -0.400976 -3.75657 -3.51861 -0.0743463 -6.57508 6.52411 0.79072 -6.24106 -4.16322 1.91693 4.34587 
57.8438 98.2859 -338.607 -101.524 -81.5828 -100.546 -178.264 -3.34577 86.7203 -20.7325 -3.95283 -0.752047 84.8499 8.73292 -1.87279 16.1619 -1.52357 3.75219 176.568 21.8688 94.7443 -19.203 -14.5447 -0.642333 67.9757 -4.60889 -0.784088 24.9309 -0.894036 2.78333 -0.231443 7.78006 -90.3226 11.3113 -0.610876 -0.581838 -0.359637 -0.635884 -0.554398 -22.8944 -0.40777 -0.738526 -2.88177 -0.407767 -0.738534 88.8176 -33.7871 -107.602 38.0472 -8.96688 -0.563011 -6.66456 -20.0124 -28.1915 -14.986 -1.32857 -0.70922 -89.2667 -51.5638 80.1362 -19.9999 19.166 -18.1119 2.23157 0.674426 -4.84083 1.94433 -0.120031 -5.454 7.07402 1.4585 -8.40562 -4.08284 3.02506 4.92168 
57.6457 97.3527 -333.438 -100.308 -84.2235 -98.3651 -177.779 -6.78565 88.0523 -19.6748 -1.45714 -0.138651 87.1622 9.38106 -2.27307 16.9345 -2.99706 5.43975 176.599 21.6271 97.4583 -8.36095 -6.05 0.903359 64.302 -3.43504 -1.10834 21.7773 -0.716967 2.89652 -0.593954 7.69717 -90.484 11.4759 -1.40775 -0.818193 -0.194578 -1.4424 -0.755451 -22.7316 -1.09679 -1.20346 -2.71897 -1.0968 -1.20347 88.583 -33.9463 -107.98 38.7425 -7.93409 2.43193 -2.36114 -21.1112 -23.2963 -16.8438 -1.25702 -2.48777 -89.3575 -51.7902 80.0477 -19.5382 18.1059 -22.4909 2.83413 1.65915 -4.40951 1.89271 -0.110977 -4.94989 6.42587 1.2796 -8.56095 -4.52864 2.82328 4.71368 
57.9056 96.155 -324.98 -135.236 -83.5637 -132.527 -178.187 -20.1987 87.4489 -10.7427 -1.83825 1.25618 85.5719 10.0485 -1.08912 21.9224 -2.58809 4.50987 176.139 22.0198 98.3091 -21.301 -7.00551 0.889235 66.4485 -2.76627 2.12723 22.2545 -1.51074 4.43953 -0.651375 8.00758 -90.7268 10.8482 -1.63263 -1.29284 -0.822285 -1.68795 -1.21974 -23.3571 -1.16866 -1.72369 -3.3444 -1.16866 -1.7237 89.0609 -33.7229 -107.171 37.6354 -5.99278 5.41103 2.99146 -20.6741 -17.5888 -12.5688 -0.910147 -4.57138 -89.0433 -52.238 80.5948 -21.1189 19.3836 -25.6856 2.81308 1.45877 -5.49151 2.65758 -0.11957 -5.03104 6.69479 1.1724 -6.75751 -5.26972 2.37179 3.94882 
57.2408 95.9633 -316.243 -167.304 -84.957 -162.052 -172.175 -21.8501 95.3209 -16.6673 4.20952 0.134518 79.1333 7.51652 -4.30791 37.5774 -3.39466 3.98275 177.061 21.908 100.794 -29.742 -6.04649 0.643473 63.9382 -1.42676 -1.80362 20.3128 -2.43867 6.50184 -0.860287 7.83419 -91.1183 11.1809 -2.23191 -2.0085 -0.489465 -2.31812 -1.90833 -23.0204 -1.52531 -2.5862 -3.00776 -1.52531 -2.58621 89.4605 -33.7264 -106.421 37.3736 -4.75367 6.52267 6.60113 -18.6851 -10.3921 -17.6815 0.344367 -14.8171 -89.0488 -52.2702 80.5916 -23.2835 20.6092 -24.092 3.66037 4.91739 -8.92973 2.95828 -0.111841 -4.87489 5.34171 1.011 -6.53982 -5.43994 2.09139 4.0437 
56.8241 95.8914 -308.204 -174.541 -83.2227 -169.202 -166.369 -13.937 102.1 -36.2913 20.7201 -0.133723 66.5346 3.64594 0.30986 30.1916 -0.38548 0.543468 176.077 17.4336 100.942 -35.9126 -8.16687 1.10234 70.0155 -4.41899 -3.42277 18.5605 -1.40656 4.65376 -0.637972 7.82846 -91.1527 11.1956 -1.80554 -2.11766 -0.475745 -1.89697 -2.03617 -23.0013 -1.08586 -2.56215 -2.98867 -1.08587 -2.56216 89.4501 -32.9977 -106.703 38.6077 -6.00466 6.06973 6.29812 -22.3118 -9.12229 -18.6796 -0.458126 -9.33287 -88.9759 -53.7741 80.9804 -21.3122 22.7402 -20.3989 3.70414 5.62639 -12.9032 2.52092 -0.110092 -4.81685 3.60183 0.741188 -4.31508 -4.91676 1.39509 2.71146 
56.6955 96.3842 -302.36 172.278 -82.2448 177.305 -169.082 4.6711 101.909 -64.8366 22.3625 4.22763 63.2216 2.17414 1.19194 13.6044 2.36194 -0.366191 175.42 11.8477 100.103 -35.4934 -7.92639 1.2809 73.9205 -6.17311 -3.79271 20.6311 -1.45826 4.5206 -0.268591 8.00671 -91.1076 10.8445 -1.04634 -2.10534 -0.827632 -1.13796 -2.05727 -23.3499 -0.365417 -2.32235 -3.33727 -0.365415 -2.32235 89.1633 -32.4246 -107.463 37.7642 -9.1648 2.47783 4.44383 -21.5977 -14.3952 -23.6361 -0.686666 -7.05732 -89.0759 -54.6731 81.0011 -19.5586 20.8214 -18.0454 5.44649 7.02026 -15.8229 1.09389 -0.119936 -5.23915 4.04963 -0.486841 -2.62255 -3.66079 -0.0499639 1.85594 
